<?xml version="1.0" encoding="us-ascii" standalone="no"?><svg xmlns="http://www.w3.org/2000/svg" xmlns:xlink="http://www.w3.org/1999/xlink" contentStyleType="text/css" height="693px" preserveAspectRatio="none" style="width:1328px;height:693px;background:#F9F9F9;" version="1.1" viewBox="0 0 1328 693" width="1328px" zoomAndPan="magnify"><defs/><g><rect fill="#F9F9F9" height="693" style="stroke:none;stroke-width:1.0;" width="1328" x="0" y="0"/><!--class Documento--><g id="elem_Documento"><rect codeLine="2" fill="#F1F1F1" height="113.1875" id="Documento" rx="3.5" ry="3.5" style="stroke:#181818;stroke-width:0.5;" width="181" x="335.5" y="173"/><ellipse cx="379.75" cy="189" fill="#ADD1B2" rx="11" ry="11" style="stroke:#181818;stroke-width:1.0;"/><path d="M382.0938,184.6719 C381.1563,184.2344 380.5625,184.0938 379.6875,184.0938 C377.0625,184.0938 375.0625,186.1719 375.0625,188.8906 L375.0625,190.0156 C375.0625,192.5938 377.1719,194.4844 380.0625,194.4844 C381.2813,194.4844 382.4375,194.1875 383.1875,193.6406 C383.7656,193.2344 384.0938,192.7813 384.0938,192.3906 C384.0938,191.9375 383.7031,191.5469 383.2344,191.5469 C383.0156,191.5469 382.8125,191.625 382.625,191.8125 C382.1719,192.2969 382.1719,192.2969 381.9844,192.3906 C381.5625,192.6563 380.875,192.7813 380.1094,192.7813 C378.0625,192.7813 376.7656,191.6875 376.7656,189.9844 L376.7656,188.8906 C376.7656,187.1094 378.0156,185.7969 379.75,185.7969 C380.3281,185.7969 380.9375,185.9531 381.4063,186.2031 C381.8906,186.4844 382.0625,186.7031 382.1563,187.1094 C382.2188,187.5156 382.25,187.6406 382.3906,187.7656 C382.5313,187.9063 382.7656,188.0156 382.9844,188.0156 C383.25,188.0156 383.5156,187.875 383.6875,187.6563 C383.7969,187.5 383.8281,187.3125 383.8281,186.8906 L383.8281,185.4688 C383.8281,185.0313 383.8125,184.9063 383.7188,184.75 C383.5625,184.4844 383.2813,184.3438 382.9844,184.3438 C382.6875,184.3438 382.4844,184.4375 382.2656,184.75 L382.0938,184.6719 Z " fill="#000000"/><text fill="#000000" font-family="sans-serif" font-size="14" lengthAdjust="spacing" textLength="84" x="400.25" y="193.8467">Documento</text><line style="stroke:#181818;stroke-width:0.5;" x1="336.5" x2="515.5" y1="205" y2="205"/><rect fill="none" height="6" style="stroke:#C82930;stroke-width:1.0;" width="6" x="343.5" y="215.6484"/><text fill="#000000" font-family="sans-serif" font-size="14" lengthAdjust="spacing" textLength="57" x="355.5" y="221.9951">id: Long</text><rect fill="none" height="6" style="stroke:#C82930;stroke-width:1.0;" width="6" x="343.5" y="231.9453"/><text fill="#000000" font-family="sans-serif" font-size="14" lengthAdjust="spacing" textLength="108" x="355.5" y="238.292">numero: String</text><rect fill="none" height="6" style="stroke:#C82930;stroke-width:1.0;" width="6" x="343.5" y="248.2422"/><text fill="#000000" font-family="sans-serif" font-size="14" lengthAdjust="spacing" textLength="73" x="355.5" y="254.5889">sei: String</text><rect fill="none" height="6" style="stroke:#C82930;stroke-width:1.0;" width="6" x="343.5" y="264.5391"/><text fill="#000000" font-family="sans-serif" font-size="14" lengthAdjust="spacing" textLength="155" x="355.5" y="270.8857">tipo: DocumentoTipo</text><line style="stroke:#181818;stroke-width:0.5;" x1="336.5" x2="515.5" y1="278.1875" y2="278.1875"/></g><!--class DocumentoTipo--><g id="elem_DocumentoTipo"><rect codeLine="8" fill="#F1F1F1" height="96.8906" id="DocumentoTipo" rx="3.5" ry="3.5" style="stroke:#181818;stroke-width:0.5;" width="256" x="7" y="7"/><ellipse cx="72.75" cy="23" fill="#ADD1B2" rx="11" ry="11" style="stroke:#181818;stroke-width:1.0;"/><path d="M75.0938,18.6719 C74.1563,18.2344 73.5625,18.0938 72.6875,18.0938 C70.0625,18.0938 68.0625,20.1719 68.0625,22.8906 L68.0625,24.0156 C68.0625,26.5938 70.1719,28.4844 73.0625,28.4844 C74.2813,28.4844 75.4375,28.1875 76.1875,27.6406 C76.7656,27.2344 77.0938,26.7813 77.0938,26.3906 C77.0938,25.9375 76.7031,25.5469 76.2344,25.5469 C76.0156,25.5469 75.8125,25.625 75.625,25.8125 C75.1719,26.2969 75.1719,26.2969 74.9844,26.3906 C74.5625,26.6563 73.875,26.7813 73.1094,26.7813 C71.0625,26.7813 69.7656,25.6875 69.7656,23.9844 L69.7656,22.8906 C69.7656,21.1094 71.0156,19.7969 72.75,19.7969 C73.3281,19.7969 73.9375,19.9531 74.4063,20.2031 C74.8906,20.4844 75.0625,20.7031 75.1563,21.1094 C75.2188,21.5156 75.25,21.6406 75.3906,21.7656 C75.5313,21.9063 75.7656,22.0156 75.9844,22.0156 C76.25,22.0156 76.5156,21.875 76.6875,21.6563 C76.7969,21.5 76.8281,21.3125 76.8281,20.8906 L76.8281,19.4688 C76.8281,19.0313 76.8125,18.9063 76.7188,18.75 C76.5625,18.4844 76.2813,18.3438 75.9844,18.3438 C75.6875,18.3438 75.4844,18.4375 75.2656,18.75 L75.0938,18.6719 Z " fill="#000000"/><text fill="#000000" font-family="sans-serif" font-size="14" lengthAdjust="spacing" textLength="116" x="93.25" y="27.8467">DocumentoTipo</text><line style="stroke:#181818;stroke-width:0.5;" x1="8" x2="262" y1="39" y2="39"/><rect fill="none" height="6" style="stroke:#C82930;stroke-width:1.0;" width="6" x="15" y="49.6484"/><text fill="#000000" font-family="sans-serif" font-size="14" lengthAdjust="spacing" textLength="57" x="27" y="55.9951">id: Long</text><rect fill="none" height="6" style="stroke:#C82930;stroke-width:1.0;" width="6" x="15" y="65.9453"/><text fill="#000000" font-family="sans-serif" font-size="14" lengthAdjust="spacing" textLength="121" x="27" y="72.292">descricao: String</text><rect fill="none" height="6" style="stroke:#C82930;stroke-width:1.0;" width="6" x="15" y="82.2422"/><text fill="#000000" font-family="sans-serif" font-size="14" lengthAdjust="spacing" textLength="230" x="27" y="88.5889">documentos: List&lt;Documento&gt;</text><line style="stroke:#181818;stroke-width:0.5;" x1="8" x2="262" y1="95.8906" y2="95.8906"/></g><!--class Usuario--><g id="elem_Usuario"><rect codeLine="13" fill="#F1F1F1" height="113.1875" id="Usuario" rx="3.5" ry="3.5" style="stroke:#181818;stroke-width:0.5;" width="221" x="1100.5" y="173"/><ellipse cx="1181.25" cy="189" fill="#ADD1B2" rx="11" ry="11" style="stroke:#181818;stroke-width:1.0;"/><path d="M1183.5938,184.6719 C1182.6563,184.2344 1182.0625,184.0938 1181.1875,184.0938 C1178.5625,184.0938 1176.5625,186.1719 1176.5625,188.8906 L1176.5625,190.0156 C1176.5625,192.5938 1178.6719,194.4844 1181.5625,194.4844 C1182.7813,194.4844 1183.9375,194.1875 1184.6875,193.6406 C1185.2656,193.2344 1185.5938,192.7813 1185.5938,192.3906 C1185.5938,191.9375 1185.2031,191.5469 1184.7344,191.5469 C1184.5156,191.5469 1184.3125,191.625 1184.125,191.8125 C1183.6719,192.2969 1183.6719,192.2969 1183.4844,192.3906 C1183.0625,192.6563 1182.375,192.7813 1181.6094,192.7813 C1179.5625,192.7813 1178.2656,191.6875 1178.2656,189.9844 L1178.2656,188.8906 C1178.2656,187.1094 1179.5156,185.7969 1181.25,185.7969 C1181.8281,185.7969 1182.4375,185.9531 1182.9063,186.2031 C1183.3906,186.4844 1183.5625,186.7031 1183.6563,187.1094 C1183.7188,187.5156 1183.75,187.6406 1183.8906,187.7656 C1184.0313,187.9063 1184.2656,188.0156 1184.4844,188.0156 C1184.75,188.0156 1185.0156,187.875 1185.1875,187.6563 C1185.2969,187.5 1185.3281,187.3125 1185.3281,186.8906 L1185.3281,185.4688 C1185.3281,185.0313 1185.3125,184.9063 1185.2188,184.75 C1185.0625,184.4844 1184.7813,184.3438 1184.4844,184.3438 C1184.1875,184.3438 1183.9844,184.4375 1183.7656,184.75 L1183.5938,184.6719 Z " fill="#000000"/><text fill="#000000" font-family="sans-serif" font-size="14" lengthAdjust="spacing" textLength="51" x="1201.75" y="193.8467">Usuario</text><line style="stroke:#181818;stroke-width:0.5;" x1="1101.5" x2="1320.5" y1="205" y2="205"/><rect fill="none" height="6" style="stroke:#C82930;stroke-width:1.0;" width="6" x="1108.5" y="215.6484"/><text fill="#000000" font-family="sans-serif" font-size="14" lengthAdjust="spacing" textLength="57" x="1120.5" y="221.9951">id: Long</text><rect fill="none" height="6" style="stroke:#C82930;stroke-width:1.0;" width="6" x="1108.5" y="231.9453"/><text fill="#000000" font-family="sans-serif" font-size="14" lengthAdjust="spacing" textLength="89" x="1120.5" y="238.292">nome String</text><rect fill="none" height="6" style="stroke:#C82930;stroke-width:1.0;" width="6" x="1108.5" y="248.2422"/><text fill="#000000" font-family="sans-serif" font-size="14" lengthAdjust="spacing" textLength="72" x="1120.5" y="254.5889">cpf String</text><rect fill="none" height="6" style="stroke:#C82930;stroke-width:1.0;" width="6" x="1108.5" y="264.5391"/><text fill="#000000" font-family="sans-serif" font-size="14" lengthAdjust="spacing" textLength="195" x="1120.5" y="270.8857">enderecos List&lt;Endereco&gt;</text><line style="stroke:#181818;stroke-width:0.5;" x1="1101.5" x2="1320.5" y1="278.1875" y2="278.1875"/></g><!--class Endereco--><g id="elem_Endereco"><rect codeLine="20" fill="#F1F1F1" height="129.4844" id="Endereco" rx="3.5" ry="3.5" style="stroke:#181818;stroke-width:0.5;" width="278" x="787" y="165"/><ellipse cx="887.75" cy="181" fill="#ADD1B2" rx="11" ry="11" style="stroke:#181818;stroke-width:1.0;"/><path d="M890.0938,176.6719 C889.1563,176.2344 888.5625,176.0938 887.6875,176.0938 C885.0625,176.0938 883.0625,178.1719 883.0625,180.8906 L883.0625,182.0156 C883.0625,184.5938 885.1719,186.4844 888.0625,186.4844 C889.2813,186.4844 890.4375,186.1875 891.1875,185.6406 C891.7656,185.2344 892.0938,184.7813 892.0938,184.3906 C892.0938,183.9375 891.7031,183.5469 891.2344,183.5469 C891.0156,183.5469 890.8125,183.625 890.625,183.8125 C890.1719,184.2969 890.1719,184.2969 889.9844,184.3906 C889.5625,184.6563 888.875,184.7813 888.1094,184.7813 C886.0625,184.7813 884.7656,183.6875 884.7656,181.9844 L884.7656,180.8906 C884.7656,179.1094 886.0156,177.7969 887.75,177.7969 C888.3281,177.7969 888.9375,177.9531 889.4063,178.2031 C889.8906,178.4844 890.0625,178.7031 890.1563,179.1094 C890.2188,179.5156 890.25,179.6406 890.3906,179.7656 C890.5313,179.9063 890.7656,180.0156 890.9844,180.0156 C891.25,180.0156 891.5156,179.875 891.6875,179.6563 C891.7969,179.5 891.8281,179.3125 891.8281,178.8906 L891.8281,177.4688 C891.8281,177.0313 891.8125,176.9063 891.7188,176.75 C891.5625,176.4844 891.2813,176.3438 890.9844,176.3438 C890.6875,176.3438 890.4844,176.4375 890.2656,176.75 L890.0938,176.6719 Z " fill="#000000"/><text fill="#000000" font-family="sans-serif" font-size="14" lengthAdjust="spacing" textLength="68" x="908.25" y="185.8467">Endereco</text><line style="stroke:#181818;stroke-width:0.5;" x1="788" x2="1064" y1="197" y2="197"/><rect fill="none" height="6" style="stroke:#C82930;stroke-width:1.0;" width="6" x="795" y="207.6484"/><text fill="#000000" font-family="sans-serif" font-size="14" lengthAdjust="spacing" textLength="57" x="807" y="213.9951">id: Long</text><rect fill="none" height="6" style="stroke:#C82930;stroke-width:1.0;" width="6" x="795" y="223.9453"/><text fill="#000000" font-family="sans-serif" font-size="14" lengthAdjust="spacing" textLength="130" x="807" y="230.292">logradouro: String</text><rect fill="none" height="6" style="stroke:#C82930;stroke-width:1.0;" width="6" x="795" y="240.2422"/><text fill="#000000" font-family="sans-serif" font-size="14" lengthAdjust="spacing" textLength="100" x="807" y="246.5889">cidade: String</text><rect fill="none" height="6" style="stroke:#C82930;stroke-width:1.0;" width="6" x="795" y="256.5391"/><text fill="#000000" font-family="sans-serif" font-size="14" lengthAdjust="spacing" textLength="80" x="807" y="262.8857">cep: String</text><rect fill="none" height="6" style="stroke:#C82930;stroke-width:1.0;" width="6" x="795" y="272.8359"/><text fill="#000000" font-family="sans-serif" font-size="14" lengthAdjust="spacing" textLength="252" x="807" y="279.1826">interferencias: List&lt;Interferencia&gt;</text><line style="stroke:#181818;stroke-width:0.5;" x1="788" x2="1064" y1="286.4844" y2="286.4844"/></g><!--class DocumentoEndereco--><g id="elem_DocumentoEndereco"><rect codeLine="28" fill="#F1F1F1" height="80.5938" id="DocumentoEndereco" rx="3.5" ry="3.5" style="stroke:#181818;stroke-width:0.5;" width="256" x="298" y="15"/><ellipse cx="345.75" cy="31" fill="#ADD1B2" rx="11" ry="11" style="stroke:#181818;stroke-width:1.0;"/><path d="M348.0938,26.6719 C347.1563,26.2344 346.5625,26.0938 345.6875,26.0938 C343.0625,26.0938 341.0625,28.1719 341.0625,30.8906 L341.0625,32.0156 C341.0625,34.5938 343.1719,36.4844 346.0625,36.4844 C347.2813,36.4844 348.4375,36.1875 349.1875,35.6406 C349.7656,35.2344 350.0938,34.7813 350.0938,34.3906 C350.0938,33.9375 349.7031,33.5469 349.2344,33.5469 C349.0156,33.5469 348.8125,33.625 348.625,33.8125 C348.1719,34.2969 348.1719,34.2969 347.9844,34.3906 C347.5625,34.6563 346.875,34.7813 346.1094,34.7813 C344.0625,34.7813 342.7656,33.6875 342.7656,31.9844 L342.7656,30.8906 C342.7656,29.1094 344.0156,27.7969 345.75,27.7969 C346.3281,27.7969 346.9375,27.9531 347.4063,28.2031 C347.8906,28.4844 348.0625,28.7031 348.1563,29.1094 C348.2188,29.5156 348.25,29.6406 348.3906,29.7656 C348.5313,29.9063 348.7656,30.0156 348.9844,30.0156 C349.25,30.0156 349.5156,29.875 349.6875,29.6563 C349.7969,29.5 349.8281,29.3125 349.8281,28.8906 L349.8281,27.4688 C349.8281,27.0313 349.8125,26.9063 349.7188,26.75 C349.5625,26.4844 349.2813,26.3438 348.9844,26.3438 C348.6875,26.3438 348.4844,26.4375 348.2656,26.75 L348.0938,26.6719 Z " fill="#000000"/><text fill="#000000" font-family="sans-serif" font-size="14" lengthAdjust="spacing" textLength="152" x="366.25" y="35.8467">DocumentoEndereco</text><line style="stroke:#181818;stroke-width:0.5;" x1="299" x2="553" y1="47" y2="47"/><rect fill="none" height="6" style="stroke:#C82930;stroke-width:1.0;" width="6" x="306" y="57.6484"/><text fill="#000000" font-family="sans-serif" font-size="14" lengthAdjust="spacing" textLength="230" x="318" y="63.9951">documentos: List&lt;Documento&gt;</text><rect fill="none" height="6" style="stroke:#C82930;stroke-width:1.0;" width="6" x="306" y="73.9453"/><text fill="#000000" font-family="sans-serif" font-size="14" lengthAdjust="spacing" textLength="200" x="318" y="80.292">enderecos: List&lt;Endereco&gt;</text><line style="stroke:#181818;stroke-width:0.5;" x1="299" x2="553" y1="87.5938" y2="87.5938"/></g><!--class UsuarioEndereco--><g id="elem_UsuarioEndereco"><rect codeLine="34" fill="#F1F1F1" height="80.5938" id="UsuarioEndereco" rx="3.5" ry="3.5" style="stroke:#181818;stroke-width:0.5;" width="226" x="989" y="15"/><ellipse cx="1038.25" cy="31" fill="#ADD1B2" rx="11" ry="11" style="stroke:#181818;stroke-width:1.0;"/><path d="M1040.5938,26.6719 C1039.6563,26.2344 1039.0625,26.0938 1038.1875,26.0938 C1035.5625,26.0938 1033.5625,28.1719 1033.5625,30.8906 L1033.5625,32.0156 C1033.5625,34.5938 1035.6719,36.4844 1038.5625,36.4844 C1039.7813,36.4844 1040.9375,36.1875 1041.6875,35.6406 C1042.2656,35.2344 1042.5938,34.7813 1042.5938,34.3906 C1042.5938,33.9375 1042.2031,33.5469 1041.7344,33.5469 C1041.5156,33.5469 1041.3125,33.625 1041.125,33.8125 C1040.6719,34.2969 1040.6719,34.2969 1040.4844,34.3906 C1040.0625,34.6563 1039.375,34.7813 1038.6094,34.7813 C1036.5625,34.7813 1035.2656,33.6875 1035.2656,31.9844 L1035.2656,30.8906 C1035.2656,29.1094 1036.5156,27.7969 1038.25,27.7969 C1038.8281,27.7969 1039.4375,27.9531 1039.9063,28.2031 C1040.3906,28.4844 1040.5625,28.7031 1040.6563,29.1094 C1040.7188,29.5156 1040.75,29.6406 1040.8906,29.7656 C1041.0313,29.9063 1041.2656,30.0156 1041.4844,30.0156 C1041.75,30.0156 1042.0156,29.875 1042.1875,29.6563 C1042.2969,29.5 1042.3281,29.3125 1042.3281,28.8906 L1042.3281,27.4688 C1042.3281,27.0313 1042.3125,26.9063 1042.2188,26.75 C1042.0625,26.4844 1041.7813,26.3438 1041.4844,26.3438 C1041.1875,26.3438 1040.9844,26.4375 1040.7656,26.75 L1040.5938,26.6719 Z " fill="#000000"/><text fill="#000000" font-family="sans-serif" font-size="14" lengthAdjust="spacing" textLength="119" x="1058.75" y="35.8467">UsuarioEndereco</text><line style="stroke:#181818;stroke-width:0.5;" x1="990" x2="1214" y1="47" y2="47"/><rect fill="none" height="6" style="stroke:#C82930;stroke-width:1.0;" width="6" x="997" y="57.6484"/><text fill="#000000" font-family="sans-serif" font-size="14" lengthAdjust="spacing" textLength="160" x="1009" y="63.9951">usuarios List&lt;Usuario&gt;</text><rect fill="none" height="6" style="stroke:#C82930;stroke-width:1.0;" width="6" x="997" y="73.9453"/><text fill="#000000" font-family="sans-serif" font-size="14" lengthAdjust="spacing" textLength="200" x="1009" y="80.292">enderecos: List&lt;Endereco&gt;</text><line style="stroke:#181818;stroke-width:0.5;" x1="990" x2="1214" y1="87.5938" y2="87.5938"/></g><!--class Interferencia--><g id="elem_Interferencia"><rect codeLine="39" fill="#F1F1F1" height="96.8906" id="Interferencia" rx="3.5" ry="3.5" style="stroke:#181818;stroke-width:0.5;" width="232" x="810" y="355"/><ellipse cx="875.75" cy="371" fill="#B4A7E5" rx="11" ry="11" style="stroke:#181818;stroke-width:1.0;"/><path d="M876.7031,367.7813 L878.4219,367.7813 C878.8125,367.7813 879,367.75 879.125,367.6719 C879.3906,367.5156 879.5313,367.2344 879.5313,366.9375 C879.5313,366.6719 879.4219,366.4063 879.1875,366.2344 C879.0156,366.125 878.875,366.0938 878.4219,366.0938 L873.2813,366.0938 C872.8438,366.0938 872.7188,366.1094 872.5625,366.2031 C872.3125,366.3594 872.1563,366.6563 872.1563,366.9375 C872.1563,367.2188 872.2969,367.4688 872.5156,367.6406 C872.6719,367.75 872.8594,367.7813 873.2813,367.7813 L875,367.7813 L875,374.2969 L873.2813,374.2969 C872.8438,374.2969 872.7188,374.3125 872.5625,374.4219 C872.3125,374.5781 872.1563,374.8594 872.1563,375.1563 C872.1563,375.4063 872.2969,375.6719 872.5156,375.8281 C872.6719,375.9531 872.875,376 873.2813,376 L878.4219,376 C879.1719,376 879.5313,375.7188 879.5313,375.1563 C879.5313,374.875 879.4219,374.625 879.1875,374.4531 C879.0156,374.3281 878.875,374.2969 878.4219,374.2969 L876.7031,374.2969 L876.7031,367.7813 Z " fill="#000000"/><text fill="#000000" font-family="sans-serif" font-size="14" font-style="italic" lengthAdjust="spacing" textLength="92" x="896.25" y="375.8467">Interferencia</text><line style="stroke:#181818;stroke-width:0.5;" x1="811" x2="1041" y1="387" y2="387"/><rect fill="none" height="6" style="stroke:#C82930;stroke-width:1.0;" width="6" x="818" y="397.6484"/><text fill="#000000" font-family="sans-serif" font-size="14" lengthAdjust="spacing" textLength="119" x="830" y="403.9951">latitude: double;</text><rect fill="none" height="6" style="stroke:#C82930;stroke-width:1.0;" width="6" x="818" y="413.9453"/><text fill="#000000" font-family="sans-serif" font-size="14" lengthAdjust="spacing" textLength="131" x="830" y="420.292">longitude: double;</text><rect fill="none" height="6" style="stroke:#C82930;stroke-width:1.0;" width="6" x="818" y="430.2422"/><text fill="#000000" font-family="sans-serif" font-size="14" lengthAdjust="spacing" textLength="206" x="830" y="436.5889">finalidades: List&lt;Finalidade&gt;</text><line style="stroke:#181818;stroke-width:0.5;" x1="811" x2="1041" y1="443.8906" y2="443.8906"/></g><!--class Subterranea--><g id="elem_Subterranea"><rect codeLine="44" fill="#F1F1F1" height="48" id="Subterranea" rx="3.5" ry="3.5" style="stroke:#181818;stroke-width:0.5;" width="121" x="715.5" y="529"/><ellipse cx="730.5" cy="545" fill="#ADD1B2" rx="11" ry="11" style="stroke:#181818;stroke-width:1.0;"/><path d="M732.8438,540.6719 C731.9063,540.2344 731.3125,540.0938 730.4375,540.0938 C727.8125,540.0938 725.8125,542.1719 725.8125,544.8906 L725.8125,546.0156 C725.8125,548.5938 727.9219,550.4844 730.8125,550.4844 C732.0313,550.4844 733.1875,550.1875 733.9375,549.6406 C734.5156,549.2344 734.8438,548.7813 734.8438,548.3906 C734.8438,547.9375 734.4531,547.5469 733.9844,547.5469 C733.7656,547.5469 733.5625,547.625 733.375,547.8125 C732.9219,548.2969 732.9219,548.2969 732.7344,548.3906 C732.3125,548.6563 731.625,548.7813 730.8594,548.7813 C728.8125,548.7813 727.5156,547.6875 727.5156,545.9844 L727.5156,544.8906 C727.5156,543.1094 728.7656,541.7969 730.5,541.7969 C731.0781,541.7969 731.6875,541.9531 732.1563,542.2031 C732.6406,542.4844 732.8125,542.7031 732.9063,543.1094 C732.9688,543.5156 733,543.6406 733.1406,543.7656 C733.2813,543.9063 733.5156,544.0156 733.7344,544.0156 C734,544.0156 734.2656,543.875 734.4375,543.6563 C734.5469,543.5 734.5781,543.3125 734.5781,542.8906 L734.5781,541.4688 C734.5781,541.0313 734.5625,540.9063 734.4688,540.75 C734.3125,540.4844 734.0313,540.3438 733.7344,540.3438 C733.4375,540.3438 733.2344,540.4375 733.0156,540.75 L732.8438,540.6719 Z " fill="#000000"/><text fill="#000000" font-family="sans-serif" font-size="14" lengthAdjust="spacing" textLength="89" x="744.5" y="549.8467">Subterranea</text><line style="stroke:#181818;stroke-width:0.5;" x1="716.5" x2="835.5" y1="561" y2="561"/><line style="stroke:#181818;stroke-width:0.5;" x1="716.5" x2="835.5" y1="569" y2="569"/></g><!--class Superficial--><g id="elem_Superficial"><rect codeLine="48" fill="#F1F1F1" height="48" id="Superficial" rx="3.5" ry="3.5" style="stroke:#181818;stroke-width:0.5;" width="108" x="872" y="529"/><ellipse cx="887" cy="545" fill="#ADD1B2" rx="11" ry="11" style="stroke:#181818;stroke-width:1.0;"/><path d="M889.3438,540.6719 C888.4063,540.2344 887.8125,540.0938 886.9375,540.0938 C884.3125,540.0938 882.3125,542.1719 882.3125,544.8906 L882.3125,546.0156 C882.3125,548.5938 884.4219,550.4844 887.3125,550.4844 C888.5313,550.4844 889.6875,550.1875 890.4375,549.6406 C891.0156,549.2344 891.3438,548.7813 891.3438,548.3906 C891.3438,547.9375 890.9531,547.5469 890.4844,547.5469 C890.2656,547.5469 890.0625,547.625 889.875,547.8125 C889.4219,548.2969 889.4219,548.2969 889.2344,548.3906 C888.8125,548.6563 888.125,548.7813 887.3594,548.7813 C885.3125,548.7813 884.0156,547.6875 884.0156,545.9844 L884.0156,544.8906 C884.0156,543.1094 885.2656,541.7969 887,541.7969 C887.5781,541.7969 888.1875,541.9531 888.6563,542.2031 C889.1406,542.4844 889.3125,542.7031 889.4063,543.1094 C889.4688,543.5156 889.5,543.6406 889.6406,543.7656 C889.7813,543.9063 890.0156,544.0156 890.2344,544.0156 C890.5,544.0156 890.7656,543.875 890.9375,543.6563 C891.0469,543.5 891.0781,543.3125 891.0781,542.8906 L891.0781,541.4688 C891.0781,541.0313 891.0625,540.9063 890.9688,540.75 C890.8125,540.4844 890.5313,540.3438 890.2344,540.3438 C889.9375,540.3438 889.7344,540.4375 889.5156,540.75 L889.3438,540.6719 Z " fill="#000000"/><text fill="#000000" font-family="sans-serif" font-size="14" lengthAdjust="spacing" textLength="76" x="901" y="549.8467">Superficial</text><line style="stroke:#181818;stroke-width:0.5;" x1="873" x2="979" y1="561" y2="561"/><line style="stroke:#181818;stroke-width:0.5;" x1="873" x2="979" y1="569" y2="569"/></g><!--class Finalidade--><g id="elem_Finalidade"><rect codeLine="51" fill="#F1F1F1" height="48" id="Finalidade" rx="3.5" ry="3.5" style="stroke:#181818;stroke-width:0.5;" width="106" x="1015" y="529"/><ellipse cx="1030" cy="545" fill="#B4A7E5" rx="11" ry="11" style="stroke:#181818;stroke-width:1.0;"/><path d="M1030.9531,541.7813 L1032.6719,541.7813 C1033.0625,541.7813 1033.25,541.75 1033.375,541.6719 C1033.6406,541.5156 1033.7813,541.2344 1033.7813,540.9375 C1033.7813,540.6719 1033.6719,540.4063 1033.4375,540.2344 C1033.2656,540.125 1033.125,540.0938 1032.6719,540.0938 L1027.5313,540.0938 C1027.0938,540.0938 1026.9688,540.1094 1026.8125,540.2031 C1026.5625,540.3594 1026.4063,540.6563 1026.4063,540.9375 C1026.4063,541.2188 1026.5469,541.4688 1026.7656,541.6406 C1026.9219,541.75 1027.1094,541.7813 1027.5313,541.7813 L1029.25,541.7813 L1029.25,548.2969 L1027.5313,548.2969 C1027.0938,548.2969 1026.9688,548.3125 1026.8125,548.4219 C1026.5625,548.5781 1026.4063,548.8594 1026.4063,549.1563 C1026.4063,549.4063 1026.5469,549.6719 1026.7656,549.8281 C1026.9219,549.9531 1027.125,550 1027.5313,550 L1032.6719,550 C1033.4219,550 1033.7813,549.7188 1033.7813,549.1563 C1033.7813,548.875 1033.6719,548.625 1033.4375,548.4531 C1033.2656,548.3281 1033.125,548.2969 1032.6719,548.2969 L1030.9531,548.2969 L1030.9531,541.7813 Z " fill="#000000"/><text fill="#000000" font-family="sans-serif" font-size="14" font-style="italic" lengthAdjust="spacing" textLength="74" x="1044" y="549.8467">Finalidade</text><line style="stroke:#181818;stroke-width:0.5;" x1="1016" x2="1120" y1="561" y2="561"/><line style="stroke:#181818;stroke-width:0.5;" x1="1016" x2="1120" y1="569" y2="569"/></g><!--class FinalidadeRequerida--><g id="elem_FinalidadeRequerida"><rect codeLine="54" fill="#F1F1F1" height="48" id="FinalidadeRequerida" rx="3.5" ry="3.5" style="stroke:#181818;stroke-width:0.5;" width="176" x="873" y="638"/><ellipse cx="888" cy="654" fill="#ADD1B2" rx="11" ry="11" style="stroke:#181818;stroke-width:1.0;"/><path d="M890.3438,649.6719 C889.4063,649.2344 888.8125,649.0938 887.9375,649.0938 C885.3125,649.0938 883.3125,651.1719 883.3125,653.8906 L883.3125,655.0156 C883.3125,657.5938 885.4219,659.4844 888.3125,659.4844 C889.5313,659.4844 890.6875,659.1875 891.4375,658.6406 C892.0156,658.2344 892.3438,657.7813 892.3438,657.3906 C892.3438,656.9375 891.9531,656.5469 891.4844,656.5469 C891.2656,656.5469 891.0625,656.625 890.875,656.8125 C890.4219,657.2969 890.4219,657.2969 890.2344,657.3906 C889.8125,657.6563 889.125,657.7813 888.3594,657.7813 C886.3125,657.7813 885.0156,656.6875 885.0156,654.9844 L885.0156,653.8906 C885.0156,652.1094 886.2656,650.7969 888,650.7969 C888.5781,650.7969 889.1875,650.9531 889.6563,651.2031 C890.1406,651.4844 890.3125,651.7031 890.4063,652.1094 C890.4688,652.5156 890.5,652.6406 890.6406,652.7656 C890.7813,652.9063 891.0156,653.0156 891.2344,653.0156 C891.5,653.0156 891.7656,652.875 891.9375,652.6563 C892.0469,652.5 892.0781,652.3125 892.0781,651.8906 L892.0781,650.4688 C892.0781,650.0313 892.0625,649.9063 891.9688,649.75 C891.8125,649.4844 891.5313,649.3438 891.2344,649.3438 C890.9375,649.3438 890.7344,649.4375 890.5156,649.75 L890.3438,649.6719 Z " fill="#000000"/><text fill="#000000" font-family="sans-serif" font-size="14" lengthAdjust="spacing" textLength="144" x="902" y="658.8467">FinalidadeRequerida</text><line style="stroke:#181818;stroke-width:0.5;" x1="874" x2="1048" y1="670" y2="670"/><line style="stroke:#181818;stroke-width:0.5;" x1="874" x2="1048" y1="678" y2="678"/></g><!--class FinalidadeAutorizada--><g id="elem_FinalidadeAutorizada"><rect codeLine="57" fill="#F1F1F1" height="48" id="FinalidadeAutorizada" rx="3.5" ry="3.5" style="stroke:#181818;stroke-width:0.5;" width="181" x="1084.5" y="638"/><ellipse cx="1099.5" cy="654" fill="#ADD1B2" rx="11" ry="11" style="stroke:#181818;stroke-width:1.0;"/><path d="M1101.8438,649.6719 C1100.9063,649.2344 1100.3125,649.0938 1099.4375,649.0938 C1096.8125,649.0938 1094.8125,651.1719 1094.8125,653.8906 L1094.8125,655.0156 C1094.8125,657.5938 1096.9219,659.4844 1099.8125,659.4844 C1101.0313,659.4844 1102.1875,659.1875 1102.9375,658.6406 C1103.5156,658.2344 1103.8438,657.7813 1103.8438,657.3906 C1103.8438,656.9375 1103.4531,656.5469 1102.9844,656.5469 C1102.7656,656.5469 1102.5625,656.625 1102.375,656.8125 C1101.9219,657.2969 1101.9219,657.2969 1101.7344,657.3906 C1101.3125,657.6563 1100.625,657.7813 1099.8594,657.7813 C1097.8125,657.7813 1096.5156,656.6875 1096.5156,654.9844 L1096.5156,653.8906 C1096.5156,652.1094 1097.7656,650.7969 1099.5,650.7969 C1100.0781,650.7969 1100.6875,650.9531 1101.1563,651.2031 C1101.6406,651.4844 1101.8125,651.7031 1101.9063,652.1094 C1101.9688,652.5156 1102,652.6406 1102.1406,652.7656 C1102.2813,652.9063 1102.5156,653.0156 1102.7344,653.0156 C1103,653.0156 1103.2656,652.875 1103.4375,652.6563 C1103.5469,652.5 1103.5781,652.3125 1103.5781,651.8906 L1103.5781,650.4688 C1103.5781,650.0313 1103.5625,649.9063 1103.4688,649.75 C1103.3125,649.4844 1103.0313,649.3438 1102.7344,649.3438 C1102.4375,649.3438 1102.2344,649.4375 1102.0156,649.75 L1101.8438,649.6719 Z " fill="#000000"/><text fill="#000000" font-family="sans-serif" font-size="14" lengthAdjust="spacing" textLength="149" x="1113.5" y="658.8467">FinalidadeAutorizada</text><line style="stroke:#181818;stroke-width:0.5;" x1="1085.5" x2="1264.5" y1="670" y2="670"/><line style="stroke:#181818;stroke-width:0.5;" x1="1085.5" x2="1264.5" y1="678" y2="678"/></g><!--class Processo--><g id="elem_Processo"><rect codeLine="61" fill="#F1F1F1" height="96.8906" id="Processo" rx="3.5" ry="3.5" style="stroke:#181818;stroke-width:0.5;" width="256" x="589" y="7"/><ellipse cx="680.75" cy="23" fill="#ADD1B2" rx="11" ry="11" style="stroke:#181818;stroke-width:1.0;"/><path d="M683.0938,18.6719 C682.1563,18.2344 681.5625,18.0938 680.6875,18.0938 C678.0625,18.0938 676.0625,20.1719 676.0625,22.8906 L676.0625,24.0156 C676.0625,26.5938 678.1719,28.4844 681.0625,28.4844 C682.2813,28.4844 683.4375,28.1875 684.1875,27.6406 C684.7656,27.2344 685.0938,26.7813 685.0938,26.3906 C685.0938,25.9375 684.7031,25.5469 684.2344,25.5469 C684.0156,25.5469 683.8125,25.625 683.625,25.8125 C683.1719,26.2969 683.1719,26.2969 682.9844,26.3906 C682.5625,26.6563 681.875,26.7813 681.1094,26.7813 C679.0625,26.7813 677.7656,25.6875 677.7656,23.9844 L677.7656,22.8906 C677.7656,21.1094 679.0156,19.7969 680.75,19.7969 C681.3281,19.7969 681.9375,19.9531 682.4063,20.2031 C682.8906,20.4844 683.0625,20.7031 683.1563,21.1094 C683.2188,21.5156 683.25,21.6406 683.3906,21.7656 C683.5313,21.9063 683.7656,22.0156 683.9844,22.0156 C684.25,22.0156 684.5156,21.875 684.6875,21.6563 C684.7969,21.5 684.8281,21.3125 684.8281,20.8906 L684.8281,19.4688 C684.8281,19.0313 684.8125,18.9063 684.7188,18.75 C684.5625,18.4844 684.2813,18.3438 683.9844,18.3438 C683.6875,18.3438 683.4844,18.4375 683.2656,18.75 L683.0938,18.6719 Z " fill="#000000"/><text fill="#000000" font-family="sans-serif" font-size="14" lengthAdjust="spacing" textLength="64" x="701.25" y="27.8467">Processo</text><line style="stroke:#181818;stroke-width:0.5;" x1="590" x2="844" y1="39" y2="39"/><rect fill="none" height="6" style="stroke:#C82930;stroke-width:1.0;" width="6" x="597" y="49.6484"/><text fill="#000000" font-family="sans-serif" font-size="14" lengthAdjust="spacing" textLength="57" x="609" y="55.9951">id: Long</text><rect fill="none" height="6" style="stroke:#C82930;stroke-width:1.0;" width="6" x="597" y="65.9453"/><text fill="#000000" font-family="sans-serif" font-size="14" lengthAdjust="spacing" textLength="152" x="609" y="72.292">anexos: List&lt;Anexo&gt;</text><rect fill="none" height="6" style="stroke:#C82930;stroke-width:1.0;" width="6" x="597" y="82.2422"/><text fill="#000000" font-family="sans-serif" font-size="14" lengthAdjust="spacing" textLength="230" x="609" y="88.5889">documentos: List&lt;Documento&gt;</text><line style="stroke:#181818;stroke-width:0.5;" x1="590" x2="844" y1="95.8906" y2="95.8906"/></g><!--class Anexo--><g id="elem_Anexo"><rect codeLine="67" fill="#F1F1F1" height="113.1875" id="Anexo" rx="3.5" ry="3.5" style="stroke:#181818;stroke-width:0.5;" width="178" x="574" y="173"/><ellipse cx="636.25" cy="189" fill="#ADD1B2" rx="11" ry="11" style="stroke:#181818;stroke-width:1.0;"/><path d="M638.5938,184.6719 C637.6563,184.2344 637.0625,184.0938 636.1875,184.0938 C633.5625,184.0938 631.5625,186.1719 631.5625,188.8906 L631.5625,190.0156 C631.5625,192.5938 633.6719,194.4844 636.5625,194.4844 C637.7813,194.4844 638.9375,194.1875 639.6875,193.6406 C640.2656,193.2344 640.5938,192.7813 640.5938,192.3906 C640.5938,191.9375 640.2031,191.5469 639.7344,191.5469 C639.5156,191.5469 639.3125,191.625 639.125,191.8125 C638.6719,192.2969 638.6719,192.2969 638.4844,192.3906 C638.0625,192.6563 637.375,192.7813 636.6094,192.7813 C634.5625,192.7813 633.2656,191.6875 633.2656,189.9844 L633.2656,188.8906 C633.2656,187.1094 634.5156,185.7969 636.25,185.7969 C636.8281,185.7969 637.4375,185.9531 637.9063,186.2031 C638.3906,186.4844 638.5625,186.7031 638.6563,187.1094 C638.7188,187.5156 638.75,187.6406 638.8906,187.7656 C639.0313,187.9063 639.2656,188.0156 639.4844,188.0156 C639.75,188.0156 640.0156,187.875 640.1875,187.6563 C640.2969,187.5 640.3281,187.3125 640.3281,186.8906 L640.3281,185.4688 C640.3281,185.0313 640.3125,184.9063 640.2188,184.75 C640.0625,184.4844 639.7813,184.3438 639.4844,184.3438 C639.1875,184.3438 638.9844,184.4375 638.7656,184.75 L638.5938,184.6719 Z " fill="#000000"/><text fill="#000000" font-family="sans-serif" font-size="14" lengthAdjust="spacing" textLength="45" x="656.75" y="193.8467">Anexo</text><line style="stroke:#181818;stroke-width:0.5;" x1="575" x2="751" y1="205" y2="205"/><rect fill="none" height="6" style="stroke:#C82930;stroke-width:1.0;" width="6" x="582" y="215.6484"/><text fill="#000000" font-family="sans-serif" font-size="14" lengthAdjust="spacing" textLength="57" x="594" y="221.9951">id: Long</text><rect fill="none" height="6" style="stroke:#C82930;stroke-width:1.0;" width="6" x="582" y="231.9453"/><text fill="#000000" font-family="sans-serif" font-size="14" lengthAdjust="spacing" textLength="108" x="594" y="238.292">numero: String</text><rect fill="none" height="6" style="stroke:#C82930;stroke-width:1.0;" width="6" x="582" y="248.2422"/><text fill="#000000" font-family="sans-serif" font-size="14" lengthAdjust="spacing" textLength="152" x="594" y="254.5889">anexos: List&lt;Anexo&gt;</text><rect fill="none" height="6" style="stroke:#C82930;stroke-width:1.0;" width="6" x="582" y="264.5391"/><text fill="#000000" font-family="sans-serif" font-size="14" lengthAdjust="spacing" textLength="138" x="594" y="270.8857">processo: Processo</text><line style="stroke:#181818;stroke-width:0.5;" x1="575" x2="751" y1="278.1875" y2="278.1875"/></g><!--reverse link Interferencia to Subterranea--><g id="link_Interferencia_Subterranea"><path d="M864.4647,465.0096 C838.4597,490.5816 820.458,508.283 799.696,528.699 " fill="none" id="Interferencia-backto-Subterranea" style="stroke:#191919;stroke-width:1.0;"/><polygon fill="none" points="877.299,452.389,860.2578,460.7315,868.6716,469.2877,877.299,452.389" style="stroke:#191919;stroke-width:1.0;"/></g><!--reverse link Interferencia to Superficial--><g id="link_Interferencia_Superficial"><path d="M926,470.389 C926,495.961 926,508.283 926,528.699 " fill="none" id="Interferencia-backto-Superficial" style="stroke:#191919;stroke-width:1.0;"/><polygon fill="none" points="926,452.389,920,470.389,932,470.389,926,452.389" style="stroke:#191919;stroke-width:1.0;"/></g><!--reverse link Finalidade to FinalidadeRequerida--><g id="link_Finalidade_FinalidadeRequerida"><path d="M1032.0549,589.9477 C1014.1149,607.8956 1002.108,619.8918 984.172,637.8279 " fill="none" id="Finalidade-backto-FinalidadeRequerida" style="stroke:#191919;stroke-width:1.0;"/><polygon fill="none" points="1044.78,577.217,1027.8113,585.706,1036.2985,594.1894,1044.78,577.217" style="stroke:#191919;stroke-width:1.0;"/></g><!--reverse link Finalidade to FinalidadeAutorizada--><g id="link_Finalidade_FinalidadeAutorizada"><path d="M1103.9451,589.9477 C1121.8851,607.8956 1133.89,619.8918 1151.83,637.8279 " fill="none" id="Finalidade-backto-FinalidadeAutorizada" style="stroke:#191919;stroke-width:1.0;"/><polygon fill="none" points="1091.22,577.217,1099.7015,594.1894,1108.1887,585.706,1091.22,577.217" style="stroke:#191919;stroke-width:1.0;"/></g><!--link DocumentoEndereco to Endereco--><g id="link_DocumentoEndereco_Endereco"><path codeLine="77" d="M546.214,96.062 C554.597,98.765 562.921,101.433 571,104 C658.756,131.89 682.239,134.153 769,165 C774.818,167.068 780.737,169.225 786.703,171.441 " fill="none" id="DocumentoEndereco-Endereco" style="stroke:#191919;stroke-width:1.0;"/><text fill="#000000" font-family="sans-serif" font-size="13" lengthAdjust="spacing" textLength="8" x="770.8664" y="164.913">1</text></g><!--link UsuarioEndereco to Usuario--><g id="link_UsuarioEndereco_Usuario"><path codeLine="78" d="M1127.28,96.393 C1141.68,119.118 1159.95,147.943 1175.74,172.864 " fill="none" id="UsuarioEndereco-Usuario" style="stroke:#191919;stroke-width:1.0;"/><text fill="#000000" font-family="sans-serif" font-size="13" lengthAdjust="spacing" textLength="8" x="1162.9552" y="162.111">1</text></g><!--link UsuarioEndereco to Endereco--><g id="link_UsuarioEndereco_Endereco"><path codeLine="79" d="M1061.18,96.393 C1040.36,116.737 1014.54,141.968 991.067,164.912 " fill="none" id="UsuarioEndereco-Endereco" style="stroke:#191919;stroke-width:1.0;"/><text fill="#000000" font-family="sans-serif" font-size="13" lengthAdjust="spacing" textLength="8" x="989.7462" y="154.075">1</text></g><!--link Endereco to Interferencia--><g id="link_Endereco_Interferencia"><path codeLine="80" d="M926,294.058 C926,314.154 926,336.008 926,354.797 " fill="none" id="Endereco-Interferencia" style="stroke:#191919;stroke-width:1.0;"/><text fill="#000000" font-family="sans-serif" font-size="13" lengthAdjust="spacing" textLength="8" x="917.5375" y="314.4363">1</text><text fill="#000000" font-family="sans-serif" font-size="13" lengthAdjust="spacing" textLength="7" x="918.5078" y="343.9774">*</text></g><!--link Interferencia to Finalidade--><g id="link_Interferencia_Finalidade"><path codeLine="81" d="M972.103,452.389 C996.722,477.961 1025.91,508.283 1045.57,528.699 " fill="none" id="Interferencia-Finalidade" style="stroke:#191919;stroke-width:1.0;"/><text fill="#000000" font-family="sans-serif" font-size="13" lengthAdjust="spacing" textLength="69" x="1015" y="495.0669">finalidades</text><text fill="#000000" font-family="sans-serif" font-size="13" lengthAdjust="spacing" textLength="8" x="969.7606" y="472.0494">1</text><text fill="#000000" font-family="sans-serif" font-size="13" lengthAdjust="spacing" textLength="7" x="1032.2496" y="518.0306">*</text></g><!--link DocumentoTipo to Documento--><g id="link_DocumentoTipo_Documento"><path codeLine="82" d="M215.673,104.183 C252.846,126.155 297.115,152.321 335.428,174.966 " fill="none" id="DocumentoTipo-Documento" style="stroke:#191919;stroke-width:1.0;"/><text fill="#000000" font-family="sans-serif" font-size="13" lengthAdjust="spacing" textLength="8" x="217.9759" y="123.8158">1</text><text fill="#000000" font-family="sans-serif" font-size="13" lengthAdjust="spacing" textLength="7" x="320.6377" y="166.8934">*</text></g><!--link Processo to Documento--><g id="link_Processo_Documento"><path codeLine="83" d="M636.327,104.183 C599.154,126.155 554.885,152.321 516.572,174.966 " fill="none" id="Processo-Documento" style="stroke:#191919;stroke-width:1.0;"/><text fill="#000000" font-family="sans-serif" font-size="13" lengthAdjust="spacing" textLength="8" x="616.9491" y="123.8158">1</text><text fill="#000000" font-family="sans-serif" font-size="13" lengthAdjust="spacing" textLength="7" x="524.3623" y="166.8934">*</text></g><!--link Processo to Anexo--><g id="link_Processo_Anexo"><path codeLine="84" d="M701.958,104.412 C695.28,125.683 687.378,150.851 680.443,172.942 " fill="none" id="Processo-Anexo" style="stroke:#191919;stroke-width:1.0;"/><text fill="#000000" font-family="sans-serif" font-size="13" lengthAdjust="spacing" textLength="8" x="691.3992" y="124.0755">1</text><text fill="#000000" font-family="sans-serif" font-size="13" lengthAdjust="spacing" textLength="7" x="675.2294" y="161.798">*</text></g><!--link DocumentoEndereco to Documento--><g id="link_DocumentoEndereco_Documento"><path codeLine="85" d="M426,96.393 C426,119.118 426,147.943 426,172.864 " fill="none" id="DocumentoEndereco-Documento" style="stroke:#191919;stroke-width:1.0;"/><text fill="#000000" font-family="sans-serif" font-size="13" lengthAdjust="spacing" textLength="8" x="417.5125" y="162.111">1</text></g><!--SRC=[ZLHDJyCm3BtdLuGTaNRWMj2aIO24n04n-05Pwer8NLBo8KqW_ZjEcpffopPsYf_jPp_RtPN_W0FmWx2EoKOun- -D30VGtl1ljkIghlYpqNjyQeIjgVZ6MzK13bHXUTMYaxBVq6G_Kyw8JdbhSD8gAKhgUaXm6AQSloE65P6-ko2ichTfK0yHoNQN3T0rM936zPmFoOoKYNE0fgIDsLjHcp3IBrKjQYW1Q0jBQGzsXtHQAZ7eU2h1eZ3fAphW-3i_YZw2P5LJNT6VQwI1pIg47azJIL7_9kzb2WbyfArZny49hto8KyBfRHkuxL6SwX_mJcdHT4CTgZqIalU-2LkiOuK6mU7eiK4tAvr5RqAB7eLmSouwgyWbUqzFaz5N-0nWyKbqbpBMmHkhliIPb9JpOeq4vxhL5FU7RrHxf1siex5Y5uw3Ekd2vvIJx_bqaJPrLL5_NSkCpOzskUIBcmLzHcnwSicVu5DkIYT7HAFpUZ5U7XkliWZB4wxAksBZlw8YWHoCjl1lRpUhq-CWnoy0]--></g></svg>